inDegrees=yes
name=ik_lifting_orientations
DataType=double
version=3
OpenSimVersion=4.5-2024-01-10-34fd6af
endheader
time	pelvis_tilt	pelvis_list	pelvis_rotation	pelvis_tx	pelvis_ty	pelvis_tz	hip_flexion_r	hip_adduction_r	hip_rotation_r	knee_angle_r	knee_angle_r_beta	ankle_angle_r	subtalar_angle_r	mtp_angle_r	hip_flexion_l	hip_adduction_l	hip_rotation_l	knee_angle_l	knee_angle_l_beta	ankle_angle_l	subtalar_angle_l	mtp_angle_l	lumbar_extension	lumbar_bending	lumbar_rotation	arm_flex_r	arm_add_r	arm_rot_r	elbow_flex_r	pro_sup_r	wrist_flex_r	wrist_dev_r	arm_flex_l	arm_add_l	arm_rot_l	elbow_flex_l	pro_sup_l	wrist_flex_l	wrist_dev_l
1.58	-0.7011857334802601	2.696575169918314	-102.6917224199868	0	0.9399999998679526	0	44.99486755583196	-10.33621118423765	0	59.99787825850723	1.047160519821673	-5.116689103280253	0	0	44.99486755583196	-10.33621118423765	0	59.99787825850723	1.047160519821673	-5.116689103280253	0	0	4.575762477171647	6.299938593172159	-7.852146935696897	75.94948929387434	55.54574028850457	28.00088187961711	77.66258777828375	1.577344455745187	0	0	0	-11.77630027990144	0	88.45382987961138	1.577344455745187	0	0
1.59	-0.6969523033345969	2.315472873767328	-101.3295660142581	0	0.9399999998679526	0	44.99487352343821	-10.33484227899472	0	59.99788031762683	1.047160555760089	-5.116069318094982	0	0	44.99487352343821	-10.33484227899472	0	59.99788031762683	1.047160555760089	-5.116069318094982	0	0	4.453926376899777	6.01249273982375	-9.097935829066248	80.65738894892434	57.9042738759628	24.38438566115229	73.24719328038248	1.576069223039268	0	0	0	-11.77821757286605	0	88.45507975456812	1.576069223039268	0	0
1.6	-0.6236734580952092	1.744966065643001	-98.87720349976946	0	0.9399999998679526	0	44.99488209008631	-10.3328897015241	0	59.99788327802682	1.047160607428816	-5.115187365352424	0	0	44.99488209008631	-10.3328897015241	0	59.99788327802682	1.047160607428816	-5.115187365352424	0	0	4.093504664120231	5.392712652492373	-10.33410203384221	85.18051883815046	58.14538595369505	20.39610945574842	70.02235975775376	1.574236841191655	0	0	0	-11.78097425285802	0	88.45687569996838	1.574236841191655	0	0
1.61	-0.5555313735313111	1.366034696773676	-96.81996845773851	0	0.9399999998679526	0	44.99489188174039	-10.33067675258349	0	59.99788667142513	1.04716066665479	-5.114190707991273	0	0	44.99489188174039	-10.33067675258349	0	59.99788667142513	1.04716066665479	-5.114190707991273	0	0	3.357138892745391	5.000534990310294	-11.95260414691844	90.62770335084075	58.6630850292833	16.2547700388366	65.58613535239259	1.572139153581354	0	0	0	-11.78413370542579	0	88.45893167579163	1.572139153581354	0	0
1.62	-0.4655290888554452	0.9861787415229688	-94.75834100167775	0	0.9399999998679526	0	44.99489878027048	-10.32911488647803	0	59.99788905620757	1.047160708277095	-5.113487319501873	0	0	44.99489878027048	-10.32911488647803	0	59.99788905620757	1.047160708277095	-5.113487319501873	0	0	2.360871127489791	4.859818929505987	-14.45385569574784	94.27642118773734	60.38530107601919	14.39812952710147	63.15855452042038	1.570662353542011	0	0	0	-11.78635661718929	0	88.46037911013629	1.570662353542011	0	0
1.63	-0.2988951793546091	0.2971564707519134	-92.01707459725581	0	0.9399999998679526	0	44.99490864760062	-10.32690231966417	0	59.99789247765708	1.047160767992654	-5.112494213658789	0	0	44.99490864760062	-10.32690231966417	0	59.99789247765708	1.047160767992654	-5.112494213658789	0	0	1.485406614459055	4.539616464247203	-17.43985293421778	98.50329856504447	61.37304462889544	11.01912023377903	59.69427313133411	1.56854649415759	0	0	0	-11.78954518122809	0	88.46245289653649	1.56854649415759	0	0
1.64	-0.1034899280317232	-0.4477715013065198	-89.53984832994553	0	0.9399999998679526	0	44.99491726122734	-10.3249752500099	0	59.9978954607297	1.047160820057093	-5.111630482057099	0	0	44.99491726122734	-10.3249752500099	0	59.9978954607297	1.047160820057093	-5.111630482057099	0	0	0.7779795701472049	3.877492846499811	-17.79016437514018	102.1389246077432	59.84790222374643	7.891380179075539	56.24058984322755	1.566699654328197	0	0	0	-11.79232773126223	0	88.46426301272852	1.566699654328197	0	0
1.65	0.1185480527938759	-1.053342806129163	-87.29008415903219	0	0.9399999998679526	0	44.99492587008711	-10.32305564341365	0	59.9978984415595	1.047160872082388	-5.110771456353604	0	0	44.99492587008711	-10.32305564341365	0	59.9978984415595	1.047160872082388	-5.110771456353604	0	0	-0.05288044668055764	3.409957909264123	-18.142885666895	103.800922862708	58.52162653733371	6.732224527022811	53.73419238751467	1.564853289624464	0	0	0	-11.79510995595897	0	88.46607266329073	1.564853289624464	0	0
1.66	0.3335128404794155	-1.533916067240841	-85.23619506018447	0	0.9399999998679526	0	44.99493360702908	-10.32134149419458	0	59.99790112609696	1.047160918936406	-5.110006075986541	0	0	44.99493360702908	-10.32134149419458	0	59.99790112609696	1.047160918936406	-5.110006075986541	0	0	-0.8282342291942487	3.098023081784654	-18.43640437253844	104.4254190832132	56.42384158801762	6.917147868246887	52.01506841931587	1.563191981146069	0	0	0	-11.79761548259991	0	88.46770093750537	1.563191981146069	0	0
1.67	0.554697993954182	-1.950274809652866	-83.80223603766002	0	0.9399999998679526	0	44.9949378427523	-10.32040939154303	0	59.9979025989111	1.047160944641861	-5.10959086589747	0	0	44.9949378427523	-10.32040939154303	0	59.9979025989111	1.047160944641861	-5.10959086589747	0	0	-1.549959443494457	2.852866998422881	-18.09170342055461	104.8895436618972	54.5438930931475	7.052506684206105	51.43485407000306	1.56228140624816	0	0	0	-11.79898991097231	0	88.46859340615046	1.56228140624816	0	0
1.68	0.7882951198881859	-2.294148102072449	-78.75259021448214	0	0.9399999998679526	0	44.99494547309187	-10.31872847716853	0	59.99790524728014	1.047160990864621	-5.108842187655734	0	0	44.99494547309187	-10.31872847716853	0	59.99790524728014	1.047160990864621	-5.108842187655734	0	0	-2.014763952672567	2.739137442889152	-22.1866684978045	106.0923166084709	53.75209183479139	6.229368296249458	49.90918836209457	1.56064191922598	0	0	0	-11.80146345787974	0	88.47020029289499	1.56064191922598	0	0
1.69	1.02484751142668	-2.697458387775503	-72.93287309179368	0	0.9399999998679526	0	44.99495384538091	-10.31689860199656	0	59.99790815981727	1.047161041697984	-5.108029430766377	0	0	44.99495384538091	-10.31689860199656	0	59.99790815981727	1.047161041697984	-5.108029430766377	0	0	-2.714394015733247	2.935535589801298	-26.72832606359281	105.4584507272287	51.87841976894948	7.261803010189425	49.72712235082495	1.558840658622983	0	0	0	-11.80418353380903	0	88.47196573657679	1.558840658622983	0	0
1.7	1.277127576782271	-3.295675277711133	-70.05089638303735	0	0.9399999998679526	0	44.99505206491276	-10.30261720072452	0	59.99795138624587	1.047161796141487	-5.102289957699233	0	0	44.99505206491276	-10.30261720072452	0	59.99795138624587	1.047161796141487	-5.102289957699233	0	0	-3.728092516219418	3.163543999938988	-28.33658366481965	104.3747388365032	49.68211926938451	8.886330533039006	49.12788170919553	1.535493187149887	0	0	0	-11.84229638060933	0	88.49484907638141	1.535493187149887	0	0
1.71	1.514877491238864	-3.817086498940882	-69.2499213058542	0	0.9399999998679526	0	44.9950856514458	-10.297551605895	0	59.99796597359889	1.047162050738826	-5.100224526573689	0	0	44.9950856514458	-10.297551605895	0	59.99796597359889	1.047162050738826	-5.100224526573689	0	0	-4.57979352060954	3.143913271485593	-27.69845314447803	101.4747066597786	48.0902255060683	11.907004231072	48.603335507843	1.527549803314342	0	0	0	-11.85522096575354	0	88.50263454948454	1.527549803314342	0	0
1.72	1.762087014088518	-4.336493642276613	-68.42931904716505	0	0.9399999998679526	0	44.99509061467936	-10.29650640501981	0	59.99796769814461	1.047162080837827	-5.099766173348078	0	0	44.99509061467936	-10.29650640501981	0	59.99796769814461	1.047162080837827	-5.099766173348078	0	0	-5.618980714798115	3.140546337084116	-26.66573280579676	101.2891395372516	46.05068500328655	13.05059131789212	46.59164056468352	1.526475680116583	0	0	0	-11.85684923679179	0	88.50368731496063	1.526475680116583	0	0
1.73	1.917393048931596	-4.693446501011167	-68.9977384760828	0	0.9399999998679526	0	44.99509388282449	-10.29581437450546	0	59.99796882984737	1.047162100589766	-5.099462293949439	0	0	44.99509388282449	-10.29581437450546	0	59.99796882984737	1.047162100589766	-5.099462293949439	0	0	-6.45530977726669	3.10642161432614	-24.85432803418376	100.6820162619257	45.22743766644027	13.89667741636205	46.14614406438606	1.525769316796464	0	0	0	-11.85791896040483	0	88.50437963300828	1.525769316796464	0	0
1.74	2.080852008282295	-5.032716287543203	-69.28800900316392	0	0.9399999998679526	0	44.99509649759274	-10.29526236698003	0	59.99796973654456	1.047162116414617	-5.099220125138205	0	0	44.99509649759274	-10.29526236698003	0	59.99796973654456	1.047162116414617	-5.099220125138205	0	0	-7.291931827270624	3.196637980291628	-23.83790128670826	100.265493822434	44.05403884648135	14.53025648407208	45.89707311610054	1.525203797999903	0	0	0	-11.85877583233613	0	88.50493390709428	1.525203797999903	0	0
1.75	2.208708157752055	-5.318755083802356	-68.72072107126455	0	0.9399999998679526	0	44.99509974864561	-10.29457655068196	0	59.99797086339746	1.047162136081911	-5.098919399284578	0	0	44.99509974864561	-10.29457655068196	0	59.99797086339746	1.047162136081911	-5.098919399284578	0	0	-8.055295245947768	3.51170939261011	-24.08636212885504	98.04986143431924	43.67546514499972	16.23128798516394	48.09733369613936	1.524500689700838	0	0	0	-11.85984110106006	0	88.50562303486991	1.524500689700838	0	0
1.76	2.344675918964495	-5.686336733061111	-68.69875048054226	0	0.9399999998679526	0	44.99510946597613	-10.29301117009174	0	59.99797494629148	1.047162207341854	-5.098269976558658	0	0	44.99510946597613	-10.29301117009174	0	59.99797494629148	1.047162207341854	-5.098269976558658	0	0	-9.085089742857756	3.836736379769777	-24.0777471118633	97.38641998725581	45.14614902123949	16.83119090038365	48.43445081466811	1.522234694372925	0	0	0	-11.86349003379605	0	88.50784398181365	1.522234694372925	0	0
1.77	2.494458531326405	-6.087954549327779	-69.37289780463129	0	0.9399999998679526	0	44.99513250529856	-10.2894953345898	0	59.99798482168421	1.047162379699972	-5.096834414590266	0	0	44.99513250529856	-10.2894953345898	0	59.99798482168421	1.047162379699972	-5.096834414590266	0	0	-10.27470811144889	3.978016786728909	-23.05864293751351	98.02801259810934	44.16165219511056	16.60201859046031	47.260399468619	1.516804908364273	0	0	0	-11.87230025472022	0	88.51316582533775	1.516804908364273	0	0
1.78	2.6681582191696	-6.493584687432409	-69.80762882115097	0	0.9399999998679526	0	44.99513677434111	-10.28860568327646	0	59.99798630149845	1.047162405527603	-5.096446114610928	0	0	44.99513677434111	-10.28860568327646	0	59.99798630149845	1.047162405527603	-5.096446114610928	0	0	-11.20260393737151	4.19519377822552	-23.27300895755489	99.4865177182553	44.68867350260341	15.72623779966334	46.68380855522005	1.515880024913844	0	0	0	-11.87370308843283	0	88.51407231863872	1.515880024913844	0	0
1.79	2.861434008704453	-6.899232410653223	-69.66356702167619	0	0.9399999998679526	0	44.99514141183261	-10.28764856498136	0	59.99798791896225	1.047162433757672	-5.0960293681592	0	0	44.99514141183261	-10.28764856498136	0	59.99798791896225	1.047162433757672	-5.0960293681592	0	0	-11.95088566738399	4.756468646801588	-25.48573155178813	100.5274205579718	47.52528391800127	15.72790049270938	46.12036218408803	1.51487272355629	0	0	0	-11.8752341843461	0	88.51505959120367	1.51487272355629	0	0
1.8	2.910438888772232	-7.144062886088405	-69.78654293216448	0	0.9399999998679526	0	44.99514638766341	-10.28662126446704	0	59.99798965090142	1.047162463985713	-5.09558228956312	0	0	44.99514638766341	-10.28662126446704	0	59.99798965090142	1.047162463985713	-5.09558228956312	0	0	-12.85918281795065	5.814082926199881	-27.86385868106742	102.2205812808838	52.07338235767295	16.30716720379351	45.05056335134248	1.513792547756409	0	0	0	-11.87687513078941	0	88.516118289178	1.513792547756409	0	0
1.81	2.810711865524639	-7.230481487147972	-71.6104014480006	0	0.9399999998679526	0	44.99515177559739	-10.28551516290007	0	59.99799153154372	1.047162496809113	-5.095101717091433	0	0	44.99515177559739	-10.28551516290007	0	59.99799153154372	1.047162496809113	-5.095101717091433	0	0	-13.76871687788043	6.56786659105278	-28.05810489272748	104.7244913501979	56.52476803527806	15.89360121124611	43.37326491779528	1.512621378339176	0	0	0	-11.87865617225484	0	88.5172661715681	1.512621378339176	0	0
